<svg xmlns="http://www.w3.org/2000/svg" viewBox="0 0 48 48" fill="none">
  <!-- Butterfly Logo - White Variant (for dark backgrounds) -->
  <defs>
    <linearGradient id="whiteGrad" x1="0%" y1="0%" x2="100%" y2="100%">
      <stop offset="0%" style="stop-color:#FFFFFF"/>
      <stop offset="100%" style="stop-color:#E5E5E5"/>
    </linearGradient>
  </defs>
  <!-- Left Wing -->
  <path d="M24 24 C20 16 10 12 8 20 C6 26 12 30 18 28 C20 27 22 25 24 24 Z" fill="url(#whiteGrad)" opacity="0.9"/>
  <path d="M24 24 C22 30 16 38 10 36 C4 34 6 26 12 24 C16 22 20 22 24 24 Z" fill="url(#whiteGrad)" opacity="0.7"/>
  <!-- Right Wing -->
  <path d="M24 24 C28 16 38 12 40 20 C42 26 36 30 30 28 C28 27 26 25 24 24 Z" fill="url(#whiteGrad)" opacity="0.9"/>
  <path d="M24 24 C26 30 32 38 38 36 C44 34 42 26 36 24 C32 22 28 22 24 24 Z" fill="url(#whiteGrad)" opacity="0.7"/>
  <!-- Body -->
  <ellipse cx="24" cy="24" rx="2" ry="8" fill="#FFFFFF"/>
  <!-- Antennae -->
  <path d="M23 16 Q20 10 18 8" stroke="#FFFFFF" stroke-width="1" fill="none" stroke-linecap="round"/>
  <path d="M25 16 Q28 10 30 8" stroke="#FFFFFF" stroke-width="1" fill="none" stroke-linecap="round"/>
</svg>
